HIERARCHY
ROOT Hips
{
  OFFSET 0 0 0
  CHANNELS 6 Xposition Yposition Zposition Zrotation Xrotation Yrotation
  JOINT Spine
  {
    OFFSET 0 8.18577 0
    CHANNELS 3 Zrotation Xrotation Yrotation
    JOINT Spine1
    {
      OFFSET 0 23.9492 0
      CHANNELS 3 Zrotation Xrotation Yrotation
      JOINT Neck
      {
        OFFSET 0 23.8508 2.16826
        CHANNELS 3 Zrotation Xrotation Yrotation
        JOINT Head
        {
          OFFSET 0 13.9757 -1.99653
          CHANNELS 3 Zrotation Xrotation Yrotation
          End Site
          {
            OFFSET 0 24.9566 0
          }
        }
      }
      JOINT LeftShoulder
      {
        OFFSET 3.97939 22.162 -0.249083
        CHANNELS 3 Zrotation Xrotation Yrotation
        JOINT LeftArm
        {
          OFFSET 10.8129 0 0
          CHANNELS 3 Zrotation Xrotation Yrotation
          JOINT LeftForeArm
          {
            OFFSET 31.6972 0 0
            CHANNELS 3 Zrotation Xrotation Yrotation
            JOINT LeftHand
            {
              OFFSET 27.0474 0 0
              CHANNELS 3 Zrotation Xrotation Yrotation
              End Site
              {
                OFFSET 14.974 0 0
              }
            }
          }
        }
      }
      JOINT RightShoulder
      {
        OFFSET -4.00645 22.162 -0.249083
        CHANNELS 3 Zrotation Xrotation Yrotation
        JOINT RightArm
        {
          OFFSET -10.8129 0 0
          CHANNELS 3 Zrotation Xrotation Yrotation
          JOINT RightForeArm
          {
            OFFSET -31.6972 0 0
            CHANNELS 3 Zrotation Xrotation Yrotation
            JOINT RightHand
            {
              OFFSET -27.0474 0 0
              CHANNELS 3 Zrotation Xrotation Yrotation
              End Site
              {
                OFFSET -14.974 0 0
              }
            }
          }
        }
      }
    }
  }
  JOINT LeftUpLeg
  {
    OFFSET 9.98265 0 0
    CHANNELS 3 Zrotation Xrotation Yrotation
    JOINT LeftLeg
    {
      OFFSET 0 -38.5116 0
      CHANNELS 3 Zrotation Xrotation Yrotation
      JOINT LeftFoot
      {
        OFFSET 0 -44.7893 0
        CHANNELS 3 Zrotation Xrotation Yrotation
        JOINT LeftToeBase
        {
          OFFSET 0 -6.48872 14.974
          CHANNELS 3 Zrotation Xrotation Yrotation
          End Site
          {
            OFFSET 0 0 3.99306
          }
        }
      }
    }
  }
  JOINT RightUpLeg
  {
    OFFSET -9.98265 0 0
    CHANNELS 3 Zrotation Xrotation Yrotation
    JOINT RightLeg
    {
      OFFSET 0 -38.5116 0
      CHANNELS 3 Zrotation Xrotation Yrotation
      JOINT RightFoot
      {
        OFFSET 0 -44.7893 0
        CHANNELS 3 Zrotation Xrotation Yrotation
        JOINT RightToeBase
        {
          OFFSET 0 -6.48872 14.974
          CHANNELS 3 Zrotation Xrotation Yrotation
          End Site
          {
            OFFSET 0 0 3.99306
          }
        }
      }
    }
  }
}
MOTION
Frames:	12
Frame Time:	0.00833333
-5.72192 96.1777 -12.6015 0.142833 -1.62326 -178.759 -0.847318 -9.80296 0.199821 2.03144 2.21393 0.233396 -4.47192 16.3125 -13.2062 11.5404 2.64789 -12.3985 14.3794 -1.3383 2.89484 -17.897 6.23962 -4.54816 5.44112 2.18954 1.12034 -9.58895 1.44253 8.26164 -18.9861 -1.99919 -4.83516 23.22 -8.81929 3.35043 -0.249086 11.7482 10.58 -19.3809 15.1335 -20.0383 6.86922 1.03902 4.65464 -0.0834318 8.89901 4.80819 -9.4793 -1.64428 12.4986 -1.19271e-015 -3.18055e-015 -3.18055e-015 -1.63323 -0.592582 -5.2381 -2.7289 6.01946 -0.799999 7.08806 1.78505 -16.8394 -1.19271e-015 0 -0 
-5.70115 96.1866 -12.6019 0.145703 -1.60067 -178.814 -0.865933 -9.82381 0.231416 2.08899 2.25221 0.264803 -4.41563 16.3359 -13.1796 11.546 2.61432 -12.3676 14.3885 -1.34395 2.88703 -17.8939 6.25225 -4.52441 5.3468 2.26213 1.2341 -9.49105 1.51854 8.2538 -18.9501 -1.98338 -4.82105 23.2298 -8.7634 3.34564 -0.321187 11.7388 10.6954 -19.3712 15.126 -20.0191 6.86107 1.109 4.51591 -0.0763823 8.8287 5.00856 -9.51102 -1.59535 12.5014 -3.97569e-016 -3.18055e-015 -6.36111e-015 -1.62669 -0.699496 -5.24746 -2.72904 6.23296 -0.610596 7.07379 1.74225 -16.939 -7.95139e-016 0 -0 
-5.67325 96.1957 -12.5938 0.17518 -1.56226 -178.854 -0.881173 -9.80991 0.237562 2.1937 2.27893 0.269665 -4.40503 16.3844 -13.148 11.5321 2.52848 -12.3296 14.3427 -1.3189 2.90596 -17.8656 6.28523 -4.49704 5.30052 2.23188 1.30146 -9.44608 1.48125 8.34626 -18.9713 -1.96861 -4.80002 23.2815 -8.7839 3.38171 -0.350342 11.7684 10.7815 -19.3951 15.1605 -20.0089 6.89196 1.16869 4.46778 -0.0643057 8.79209 5.11522 -9.52318 -1.55883 12.4885 -1.19271e-015 1.59028e-015 3.18055e-015 -1.57299 -0.760685 -5.1254 -2.73947 6.38802 -0.506729 7.26424 1.72589 -17.0873 7.95139e-016 -1.59028e-015 3.18055e-015 
-5.64846 96.2063 -12.5839 0.199634 -1.52482 -178.893 -0.894849 -9.81463 0.248594 2.26526 2.35761 0.27876 -4.36345 16.4021 -13.1353 11.5304 2.4326 -12.3076 14.3513 -1.32456 2.91887 -17.8612 6.33253 -4.45453 5.24955 2.18461 1.3733 -9.36708 1.43997 8.31104 -18.962 -1.9556 -4.78687 23.32 -8.77465 3.40013 -0.384597 11.7762 10.8842 -19.385 15.1741 -20.0335 6.9135 1.22278 4.43788 -0.0462143 8.75762 5.17265 -9.54124 -1.51486 12.5159 3.97569e-016 -1.59028e-015 -3.18055e-015 -1.52523 -0.852768 -5.191 -2.76999 6.59772 -0.185879 7.25573 1.66179 -17.2957 1.76556e-031 1.59028e-015 -6.36111e-015 
-5.63368 96.2171 -12.5681 0.208886 -1.49907 -178.932 -0.928218 -9.80989 0.258205 2.35699 2.40089 0.288562 -4.28984 16.429 -13.1066 11.4322 2.3293 -12.2799 14.3462 -1.34204 2.9141 -17.8788 6.41973 -4.38577 5.25499 2.10376 1.4101 -9.33463 1.35989 8.30899 -18.9685 -1.93384 -4.77703 23.3613 -8.79211 3.44217 -0.399834 11.721 10.9626 -19.4439 15.1488 -20.1337 6.91223 1.25511 4.46441 -0.0222984 8.7299 5.19711 -9.53537 -1.45911 12.5236 1.59028e-015 -1.59028e-015 -6.36111e-015 -1.4929 -0.950463 -5.26333 -2.81794 6.76338 -0.127159 7.27146 1.70096 -17.2492 3.97569e-016 1.59028e-015 -0 
-5.61848 96.2268 -12.5478 0.228235 -1.47417 -178.955 -0.945214 -9.78748 0.250619 2.4381 2.41911 0.280237 -4.32167 16.4501 -13.0641 11.4702 2.29446 -12.2283 14.3178 -1.31295 2.92888 -17.8553 6.40277 -4.33513 5.25078 1.98255 1.42911 -9.32135 1.2404 8.28842 -18.979 -1.91495 -4.7498 23.4075 -8.79159 3.49598 -0.413088 11.7506 10.9801 -19.3512 15.1514 -20.0657 6.91613 1.26842 4.5531 0.023073 8.72173 5.20106 -9.56379 -1.41469 12.4811 3.97569e-016 0 -0 -1.4696 -1.01558 -5.01963 -2.78246 6.91135 -0.158122 7.23701 1.67419 -17.4205 3.97569e-016 0 3.18055e-015 
-5.60049 96.2351 -12.5186 0.26587 -1.45393 -178.936 -0.952601 -9.74985 0.234772 2.50098 2.42671 0.263064 -4.2805 16.4503 -13.0255 11.4471 2.25958 -12.1873 14.3252 -1.3272 2.93984 -17.8497 6.44511 -4.29316 5.24266 2.01652 1.45424 -9.34088 1.26943 8.3189 -18.9563 -1.9047 -4.73474 23.4321 -8.74766 3.53006 -0.390395 11.7132 11.0017 -19.4313 15.111 -19.9746 6.90834 1.24143 4.81941 0.169546 8.74134 4.98744 -9.58532 -1.3616 12.4202 -3.97569e-016 0 -0 -1.41689 -1.11492 -5.14718 -2.81026 7.09388 0.128627 7.22521 1.6436 -17.5768 -3.97569e-016 1.59028e-015 -6.36111e-015 
-5.60401 96.2459 -12.5047 0.261002 -1.42428 -178.96 -0.963348 -9.75583 0.245683 2.52972 2.50784 0.272584 -4.26557 16.4214 -13.0053 11.4676 2.26563 -12.1629 14.3486 -1.32055 2.95059 -17.8587 6.47822 -4.26893 5.27047 2.08654 1.48302 -9.46361 1.33017 8.30245 -18.9425 -1.88895 -4.73555 23.4608 -8.63443 3.55183 -0.414004 11.6561 11.0551 -19.4388 15.0774 -20.0863 6.88625 1.26936 4.89395 0.192859 8.72487 4.95635 -9.58143 -1.31364 12.4285 -0 -1.59028e-015 -0 -1.41915 -1.1593 -5.08595 -2.816 7.20373 0.216115 7.19446 1.64164 -17.7034 -3.97569e-016 -1.59028e-015 -3.18055e-015 
-5.60466 96.2547 -12.4759 0.270311 -1.404 -178.953 -0.97605 -9.749 0.241404 2.56679 2.57844 0.266836 -4.20937 16.4032 -12.9744 11.438 2.203 -12.1272 14.3822 -1.33914 2.95973 -17.8688 6.49574 -4.24357 5.24572 2.07259 1.50175 -9.40944 1.32017 8.29597 -18.9364 -1.89293 -4.71876 23.4873 -8.64122 3.5582 -0.420393 11.6986 11.0665 -19.2982 15.1008 -20.119 6.88641 1.2556 4.9831 0.22431 8.74273 4.86131 -9.59169 -1.28535 12.4337 7.95139e-016 1.59028e-015 -0 -1.40067 -1.2104 -5.06049 -2.82991 7.30292 0.312906 7.04489 1.63651 -17.8353 1.76556e-031 1.59028e-015 -6.36111e-015 
-5.6103 96.26 -12.4423 0.276128 -1.38133 -178.916 -0.984098 -9.75415 0.232799 2.57984 2.68621 0.256479 -4.13894 16.3614 -12.9607 11.4192 2.15249 -12.1083 14.4512 -1.35293 2.94778 -17.8998 6.45183 -4.23115 5.21376 2.04677 1.5156 -9.34348 1.29671 8.32348 -18.9324 -1.9009 -4.71985 23.5193 -8.61882 3.54901 -0.416855 11.7315 11.0785 -19.2379 15.1199 -20.1045 6.88196 1.22792 5.05595 0.25258 8.76979 4.78526 -9.57236 -1.25509 12.4059 -1.19271e-015 -3.18055e-015 3.18055e-015 -1.37628 -1.25377 -5.10881 -2.87383 7.38759 0.410972 7.25245 1.60951 -17.8961 7.95139e-016 1.59028e-015 -0 
-5.6239 96.2608 -12.4119 0.263512 -1.36044 -178.876 -0.966979 -9.70939 0.202752 2.54425 2.69331 0.225217 -4.15406 16.3761 -12.9074 11.4835 2.11712 -12.0419 14.4384 -1.34363 2.96922 -17.8476 6.45405 -4.20651 5.20126 2.01394 1.52326 -9.32608 1.26365 8.33945 -18.8835 -1.91032 -4.69555 23.5246 -8.57691 3.58141 -0.405428 11.7921 11.0589 -19.2398 15.1641 -20.0176 6.85572 1.2042 5.15296 0.285749 8.79663 4.66252 -9.5782 -1.24077 12.4009 1.19271e-015 0 6.36111e-015 -1.379 -1.27521 -5.15864 -2.90601 7.43431 0.473302 7.24258 1.60909 -17.9591 0 0 -0 
-5.64191 96.2606 -12.3778 0.257396 -1.34686 -178.836 -0.962489 -9.70531 0.202135 2.51499 2.76545 0.223175 -4.09034 16.3707 -12.8983 11.5183 2.05193 -12.0213 14.4923 -1.35687 2.94267 -17.8436 6.4231 -4.21307 5.19278 2.00057 1.54867 -9.3378 1.24934 8.3277 -18.8223 -1.91855 -4.69217 23.512 -8.53543 3.53934 -0.430527 11.8082 11.0919 -19.2017 15.1814 -20.0511 6.83314 1.16289 5.30282 0.326808 8.8332 4.48725 -9.53962 -1.23908 12.3759 -7.95139e-016 1.59028e-015 -3.18055e-015 -1.38036 -1.30969 -5.20972 -2.93958 7.48728 0.525727 7.26218 1.599 -18.0026 3.97569e-016 1.59028e-015 -6.36111e-015 
